<svg width="36" height="40" viewBox="0 0 36 40" fill="none" xmlns="http://www.w3.org/2000/svg">
<g clip-path="url(#clip0_304_464)">
<path d="M35.6379 22.0673V28.0069C35.6379 28.0754 35.6366 28.1439 35.6325 28.2123C35.6312 28.2257 35.6312 28.2405 35.6299 28.2539C35.6272 28.2942 35.6245 28.3345 35.6205 28.3761C35.6164 28.4163 35.6124 28.4566 35.607 28.4969C35.603 28.5358 35.5963 28.5747 35.5909 28.6123C35.5815 28.67 35.5721 28.7264 35.5601 28.7841C35.5534 28.8204 35.5453 28.8553 35.5372 28.8915C35.5292 28.9224 35.5211 28.9546 35.5131 28.9868C35.5064 29.0163 35.4983 29.0445 35.4889 29.0741C35.4527 29.2043 35.4084 29.3331 35.3574 29.4593C35.3466 29.4861 35.3359 29.5143 35.3238 29.5412C35.293 29.615 35.2594 29.6875 35.2232 29.7586C35.2057 29.7949 35.1869 29.8298 35.1681 29.8647L35.1668 29.8633L28.4473 26.1237L17.9238 20.266L25.8379 16.623L35.4956 21.9895L35.6379 22.0673Z" fill="url(#paint0_linear_304_464)"/>
<path d="M35.5194 10.982L33.471 12.5605L31.6576 15.4115L14.416 5.81423L20.9677 1.21289L24.9274 3.50014H24.9288L32.1851 7.6894L33.6872 8.55651C34.612 9.09074 35.2643 9.97128 35.5194 10.982Z" fill="url(#paint1_linear_304_464)"/>
<path d="M24.9275 3.50101L0 17.7815V11.9373C0 10.5426 0.743624 9.25403 1.95034 8.55738L15.8685 0.522483C17.0752 -0.174161 18.5624 -0.174161 19.7705 0.522483L24.9275 3.50101Z" fill="#21E786"/>
<path d="M35.6376 11.9364V13.9646L3.43758 32.2452L1.95034 31.3861C0.743624 30.6881 0 29.4009 0 28.0062V25.9821L32.1852 7.68945L33.6872 8.55657C34.894 9.25321 35.6376 10.5418 35.6376 11.9364Z" fill="#21E786"/>
<path d="M35.6374 21.9062V28.0069C35.6374 28.0754 35.636 28.1438 35.632 28.2123C35.6307 28.2257 35.6307 28.2405 35.6293 28.2539C35.6266 28.2942 35.624 28.3344 35.6199 28.376C35.6159 28.4163 35.6119 28.4566 35.6065 28.4969C35.6025 28.5358 35.5958 28.5747 35.5904 28.6123C35.581 28.67 35.5716 28.7264 35.5595 28.7841C35.5528 28.8203 35.5448 28.8552 35.5367 28.8915C35.5287 28.9224 35.5206 28.9546 35.5125 28.9868C35.5058 29.0163 35.4978 29.0445 35.4884 29.074C35.4521 29.2042 35.4079 29.3331 35.3568 29.4593C35.3461 29.4861 35.3354 29.5143 35.3233 29.5411C35.2924 29.615 35.2589 29.6875 35.2226 29.7586C35.2052 29.7948 35.1864 29.8297 35.1676 29.8646C35.1461 29.9036 35.1246 29.9425 35.1018 29.9801C35.0803 30.019 35.0562 30.0566 35.0334 30.0942C34.985 30.168 34.9354 30.2418 34.883 30.313C34.8293 30.3854 34.7743 30.4552 34.7179 30.5224C34.6884 30.5573 34.6589 30.5908 34.6293 30.623C34.5998 30.6566 34.5689 30.6888 34.538 30.721C34.4763 30.7854 34.4119 30.8485 34.3448 30.9076C34.3193 30.9318 34.2924 30.9546 34.2656 30.9774C34.2495 30.9908 34.2334 31.0042 34.2172 31.0177C34.185 31.0458 34.1515 31.0727 34.1166 31.0982C34.083 31.125 34.0495 31.1505 34.0132 31.1747C33.9461 31.2244 33.8763 31.2714 33.8052 31.3156C33.7662 31.3398 33.7273 31.364 33.687 31.3868L19.7703 39.4217C18.5622 40.1183 17.075 40.1183 15.8683 39.4217L10.7783 36.4834L28.4468 26.1237L35.4951 21.9895L35.6374 21.9062Z" fill="#21E786"/>
<path d="M6.99866 5.64258V34.3003L3.43758 32.2453L1.95034 31.3862C0.743624 30.6882 0 29.401 0 28.0063V11.9365C0 10.5419 0.743624 9.25332 1.95034 8.55667L6.99866 5.64258Z" fill="#21E786"/>
</g>
<defs>
<linearGradient id="paint0_linear_304_464" x1="34.5641" y1="26.4432" x2="20.2688" y2="16.6445" gradientUnits="userSpaceOnUse">
<stop stop-color="#00FFA3"/>
<stop offset="1" stop-color="#00FFA3" stop-opacity="0"/>
</linearGradient>
<linearGradient id="paint1_linear_304_464" x1="32.2147" y1="12.8854" x2="19.2617" y2="4.49611" gradientUnits="userSpaceOnUse">
<stop stop-color="#00FFA3"/>
<stop offset="1" stop-color="#00FFA3" stop-opacity="0"/>
</linearGradient>
<clipPath id="clip0_304_464">
<rect width="36" height="40" fill="white"/>
</clipPath>
</defs>
</svg>
